<?xml version="1.0" encoding="UTF-8"?> <!-- Generator: Adobe Illustrator 23.1.1, SVG Export Plug-In . SVG Version: 6.00 Build 0) --> <svg xmlns="http://www.w3.org/2000/svg" xmlns:xlink="http://www.w3.org/1999/xlink" id="Layer_1" x="0px" y="0px" viewBox="0 0 405.7 30" style="enable-background:new 0 0 405.7 30;" xml:space="preserve"> <style type="text/css"> .st0{fill:#191919;} .st1{fill:#00B67A;} </style> <g> <path class="st0" d="M340.7,10.6h8.3v1.5h-3.3v8.6h-1.8v-8.6h-3.2V10.6L340.7,10.6z M348.6,13.4h1.5v1.4l0,0c0-0.2,0.1-0.4,0.3-0.6 c0.1-0.2,0.3-0.4,0.5-0.5c0.2-0.2,0.4-0.3,0.6-0.4c0.2-0.1,0.5-0.1,0.7-0.1s0.3,0,0.4,0s0.1,0,0.2,0v1.6c-0.1,0-0.2,0-0.4-0.1 c-0.1,0-0.2,0-0.4,0c-0.3,0-0.5,0.1-0.8,0.2c-0.2,0.1-0.5,0.3-0.6,0.5c-0.2,0.2-0.3,0.5-0.4,0.8c-0.1,0.4-0.2,0.7-0.2,1.1v3.5h-1.6 L348.6,13.4L348.6,13.4z M360.5,20.7h-1.6v-1l0,0c-0.2,0.4-0.5,0.7-0.9,0.9c-0.4,0.2-0.8,0.3-1.2,0.3c-1,0-1.7-0.2-2.1-0.7 s-0.6-1.2-0.6-2.2v-4.7h1.6v4.5c0,0.6,0.1,1.1,0.4,1.4c0.2,0.3,0.6,0.4,1,0.4c0.3,0,0.6,0,0.9-0.2c0.2-0.1,0.4-0.2,0.6-0.4 c0.1-0.2,0.2-0.4,0.3-0.6c0.1-0.2,0.1-0.5,0.1-0.8v-4.3h1.6L360.5,20.7L360.5,20.7z M363.2,18.4c0.1,0.5,0.2,0.8,0.5,1 s0.7,0.3,1.1,0.3c0.2,0,0.3,0,0.5,0s0.4-0.1,0.5-0.1c0.2-0.1,0.3-0.2,0.4-0.3c0.1-0.1,0.2-0.3,0.2-0.5s-0.1-0.4-0.2-0.5 c-0.2-0.1-0.3-0.3-0.5-0.3c-0.2-0.1-0.5-0.2-0.8-0.2c-0.3-0.1-0.6-0.1-0.9-0.2s-0.6-0.1-0.9-0.2s-0.5-0.2-0.8-0.4 c-0.2-0.2-0.4-0.4-0.5-0.6c-0.1-0.3-0.2-0.6-0.2-0.9c0-0.4,0.1-0.7,0.3-1c0.2-0.3,0.5-0.5,0.7-0.7c0.3-0.2,0.6-0.3,1-0.4 c0.3-0.1,0.7-0.1,1.1-0.1s0.8,0,1.1,0.1c0.3,0.1,0.7,0.2,0.9,0.4c0.3,0.2,0.5,0.4,0.7,0.7s0.3,0.6,0.4,1h-1.7 c-0.1-0.4-0.3-0.7-0.5-0.8c-0.3-0.1-0.6-0.2-1-0.2c-0.1,0-0.3,0-0.4,0c-0.2,0-0.3,0.1-0.5,0.1c-0.1,0-0.3,0.1-0.4,0.2 c-0.1,0.1-0.2,0.3-0.1,0.4c0,0.2,0.1,0.4,0.2,0.5s0.3,0.2,0.5,0.3s0.5,0.1,0.8,0.2s0.6,0.1,0.9,0.2s0.6,0.1,0.9,0.2 s0.5,0.2,0.8,0.4s0.4,0.4,0.5,0.6s0.2,0.6,0.2,0.9c0,0.4-0.1,0.8-0.3,1.1c-0.2,0.3-0.5,0.6-0.8,0.7c-0.3,0.2-0.7,0.3-1.1,0.4 s-0.8,0.1-1.2,0.1c-0.4,0-0.9,0-1.3-0.2c-0.4-0.1-0.7-0.3-1-0.5s-0.5-0.5-0.7-0.8s-0.3-0.7-0.3-1.1L363.2,18.4L363.2,18.4z M368.6,13.4h1.2v-2.2h1.6v2.2h1.5v1.2h-1.5v3.9c0,0.2,0,0.3,0,0.4s0,0.2,0.1,0.3c0.1,0.1,0.1,0.2,0.2,0.2s0.2,0.1,0.4,0.1 c0.1,0,0.2,0,0.3,0c0.1,0,0.2,0,0.3,0v1.3c-0.2,0-0.4,0-0.5,0.1c-0.2,0-0.4,0-0.5,0c-0.4,0-0.8,0-1-0.1s-0.4-0.2-0.6-0.4 c-0.2-0.2-0.3-0.4-0.3-0.6c-0.1-0.3-0.1-0.5-0.1-0.8v-4.3h-1.2L368.6,13.4L368.6,13.4L368.6,13.4z M374.1,13.4h1.5v1l0,0 c0.2-0.4,0.5-0.7,1-0.9c0.4-0.2,0.9-0.3,1.3-0.3c0.6,0,1.1,0.1,1.5,0.3s0.8,0.5,1.1,0.8c0.3,0.4,0.5,0.8,0.6,1.2 c0.1,0.5,0.2,1,0.2,1.5s-0.1,1-0.2,1.4s-0.3,0.9-0.6,1.2c-0.3,0.4-0.6,0.7-1,0.9c-0.4,0.2-0.9,0.3-1.4,0.3c-0.2,0-0.5,0-0.7-0.1 c-0.2,0-0.5-0.1-0.7-0.2s-0.4-0.2-0.6-0.4c-0.2-0.1-0.3-0.3-0.5-0.5l0,0v3.7H374L374.1,13.4L374.1,13.4z M379.9,17.1 c0-0.3,0-0.7-0.1-1c-0.1-0.3-0.2-0.6-0.4-0.8c-0.2-0.2-0.4-0.4-0.6-0.6c-0.3-0.1-0.6-0.2-0.9-0.2c-0.7,0-1.2,0.2-1.6,0.7 c-0.3,0.5-0.5,1.1-0.5,1.9c0,0.4,0,0.7,0.1,1s0.2,0.6,0.4,0.8c0.2,0.2,0.4,0.4,0.7,0.5c0.3,0.1,0.5,0.2,0.9,0.2s0.7-0.1,0.9-0.2 c0.3-0.1,0.5-0.4,0.6-0.6c0.2-0.2,0.3-0.5,0.4-0.8C379.8,17.7,379.9,17.4,379.9,17.1L379.9,17.1z M382.7,10.6h1.6v1.5h-1.6V10.6z M382.7,13.4h1.6v7.4h-1.6V13.4z M385.8,10.6h1.6v10.2h-1.6V10.6z M392.5,20.9c-0.6,0-1.1-0.1-1.6-0.3c-0.4-0.2-0.8-0.5-1.2-0.8 c-0.3-0.4-0.6-0.8-0.7-1.2c-0.2-0.5-0.3-1-0.3-1.6s0.1-1.1,0.3-1.6c0.2-0.5,0.4-0.9,0.7-1.2c0.3-0.3,0.7-0.6,1.2-0.8s1-0.3,1.6-0.3 s1.1,0.1,1.6,0.3c0.4,0.2,0.8,0.5,1.2,0.8c0.3,0.3,0.6,0.8,0.7,1.2c0.2,0.5,0.3,1,0.3,1.6s-0.1,1.1-0.3,1.6 c-0.2,0.5-0.4,0.9-0.7,1.2c-0.3,0.3-0.7,0.6-1.2,0.8C393.6,20.9,393,21,392.5,20.9z M392.5,19.7c0.4,0,0.7-0.1,0.9-0.2 c0.3-0.1,0.5-0.4,0.7-0.6s0.3-0.5,0.4-0.8s0.1-0.6,0.1-0.9s0-0.6-0.1-0.9s-0.2-0.6-0.4-0.8c-0.2-0.2-0.4-0.4-0.7-0.6 c-0.3-0.2-0.6-0.2-0.9-0.2c-0.4,0-0.7,0.1-0.9,0.2c-0.3,0.1-0.5,0.3-0.7,0.6s-0.3,0.5-0.4,0.8c-0.1,0.3-0.1,0.6-0.1,0.9 s0,0.6,0.1,1c0.1,0.3,0.2,0.6,0.4,0.8s0.4,0.4,0.7,0.6C391.8,19.6,392.1,19.7,392.5,19.7z M396.7,13.4h1.2v-2.2h1.6v2.2h1.5v1.2 h-1.5v3.9c0,0.2,0,0.3,0,0.4s0,0.2,0.1,0.3c0,0.1,0.1,0.2,0.2,0.2s0.2,0.1,0.4,0.1c0.1,0,0.2,0,0.3,0c0.1,0,0.2,0,0.3,0v1.3 c-0.2,0-0.4,0-0.5,0.1c-0.2,0-0.4,0-0.5,0c-0.4,0-0.8,0-1-0.1c-0.3-0.1-0.5-0.2-0.6-0.4c-0.2-0.2-0.3-0.4-0.3-0.6 c-0.1-0.3-0.1-0.5-0.1-0.8v-4.3h-1.2L396.7,13.4L396.7,13.4z"></path> <path class="st1" d="M338.8,10.6h-7.5L329,3.5l-2.3,7.1h-7.5l6.1,4.4l-2.3,7.1l6.1-4.4L335,22l-2.3-7.1L338.8,10.6z"></path> </g> <g> <path d="M11.7,20.7V19H6.8v-2.9h4.4v-1.7H6.8v-2.9h4.9V9.8H5v10.9H11.7z M12.8,20.7h2c0.1-0.2,1.5-2.3,1.7-2.5l1.7,2.5h2.1 l-2.7-3.8l2.6-3.7h-2l-1.6,2.4c-0.1-0.2-1.5-2.2-1.6-2.4h-2.1l2.7,3.7L12.8,20.7z M24.7,14.6c1.1,0,1.6,0.7,1.8,1.4l1.6-0.6 c-0.3-1.2-1.4-2.5-3.4-2.5c-2.2,0-3.8,1.7-3.8,4s1.7,4,3.9,4c2,0,3.1-1.3,3.4-2.4l-1.6-0.6c-0.2,0.6-0.7,1.4-1.9,1.4 c-1.1,0-2.1-0.8-2.1-2.4C22.7,15.4,23.6,14.6,24.7,14.6z M31,16.1c0.1-0.8,0.7-1.7,1.8-1.7c1.2,0,1.8,0.8,1.8,1.7H31z M34.8,18.1 c-0.2,0.7-0.8,1.3-1.9,1.3c-1.1,0-2-0.8-2-2h5.5c0,0,0-0.3,0-0.6c0-2.4-1.4-3.9-3.7-3.9c-1.9,0-3.6,1.6-3.6,3.9c0,2.5,1.8,4,3.8,4 c1.8,0,3-1.1,3.4-2.4L34.8,18.1z M39.9,20.7V9.5h-1.8v11.1h1.8V20.7z M44,20.7V9.5h-1.8v11.1H44V20.7z M47.6,16.1 c0.1-0.8,0.7-1.7,1.8-1.7c1.2,0,1.8,0.8,1.8,1.7H47.6z M51.5,18.1c-0.2,0.7-0.8,1.3-1.9,1.3c-1.1,0-2-0.8-2-2H53c0,0,0-0.3,0-0.6 c0-2.4-1.4-3.9-3.7-3.9c-1.9,0-3.6,1.6-3.6,3.9c0,2.5,1.8,4,3.8,4c1.8,0,3-1.1,3.4-2.4L51.5,18.1z M56.6,16.4c0-1,0.5-1.8,1.6-1.8 s1.5,0.7,1.5,1.7v4.4h1.8V16c0-1.6-0.9-3-2.7-3c-0.8,0-1.7,0.4-2.2,1.2v-1h-1.7v7.5h1.8L56.6,16.4L56.6,16.4z M65.9,10.9h-1.6V12 c0,0.7-0.4,1.2-1.2,1.2h-0.4v1.6h1.4v3.8c0,1.4,0.9,2.2,2.2,2.2c0.6,0,1-0.1,1.1-0.2v-1.5c-0.1,0-0.4,0.1-0.6,0.1 c-0.7,0-1-0.3-1-0.9v-3.5h1.6v-1.6h-1.6L65.9,10.9z"></path> </g> <g> <path class="st1" d="M149.1,4.8v20h20v-20C169.1,4.8,149.1,4.8,149.1,4.8z M159.2,8.2l1.7,5.1h5.4l-7,5.1l3.1-0.6l1.2,3.8l-4.3-3.1 l-4.3,3.1l1.7-5.1l-4.3-3.1h5.4L159.2,8.2z M172.9,4.8v20h20v-20C192.9,4.8,172.9,4.8,172.9,4.8z M182.9,8.2l1.7,5.1h5.4l-7,5.1 l3.1-0.6l1.2,3.8l-4.3-3.1l-4.3,3.1l1.7-5.1l-4.3-3.1h5.4L182.9,8.2z M125.3,4.8v20h20v-20C145.3,4.8,125.3,4.8,125.3,4.8z M135.4,8.2l1.7,5.1h5.4l-7,5.1l3.1-0.6l1.2,3.8l-4.3-3.1l-4.3,3.1l1.7-5.1l-4.3-3.1h5.4L135.4,8.2z M101.6,4.8v20h20v-20 C121.6,4.8,101.6,4.8,101.6,4.8z M111.6,8.2l1.7,5.1h5.4l-7,5.1l3.1-0.6l1.2,3.8l-4.3-3.1l-4.3,3.1l1.7-5.1l-4.3-3.1h5.4L111.6,8.2 z M77.8,4.8v20h20v-20C97.8,4.8,77.8,4.8,77.8,4.8z M87.9,8.2l1.7,5.1H95l-7,5.1l3.1-0.6l1.2,3.8L88,18.5l-4.3,3.1l1.7-5.1 l-4.3-3.1h5.4L87.9,8.2z"></path> </g> <g> <path d="M207.7,13c-0.7,0.6-3.3,2.9-3.7,7.5h-1.7c0.4-5,3.5-7.5,3.5-7.5H201v-1.4h6.7V13z"></path> <path d="M208.1,18.4c0.7,0,1.3,0.6,1.3,1.5c0,1.9-1.3,2.7-2.2,2.9v-0.8c0.6-0.1,1.2-0.8,1.2-1.5c-0.1,0-0.2,0.1-0.3,0.1 c-0.6,0-1-0.4-1-1C207,18.9,207.5,18.4,208.1,18.4z"></path> <path d="M211.4,12.8c0.6-0.9,1.5-1.5,2.9-1.5c1.3,0,2.3,0.6,2.8,1.5c0.6,0.9,0.8,2,0.8,3.2c0,1.2-0.2,2.3-0.8,3.2 c-0.6,0.9-1.5,1.5-2.8,1.5c-1.3,0-2.3-0.6-2.9-1.5c-0.6-0.9-0.8-2-0.8-3.2C210.6,14.8,210.8,13.7,211.4,12.8z M212.9,18.5 c0.3,0.4,0.7,0.7,1.4,0.7s1.1-0.3,1.4-0.7c0.4-0.6,0.6-1.4,0.6-2.5s-0.2-2-0.6-2.5c-0.3-0.4-0.7-0.7-1.4-0.7s-1.1,0.3-1.4,0.7 c-0.4,0.6-0.6,1.4-0.6,2.5S212.5,18,212.9,18.5z"></path> <path d="M219.9,12.8c0.6-0.9,1.5-1.5,2.9-1.5c1.3,0,2.3,0.6,2.8,1.5c0.6,0.9,0.8,2,0.8,3.2c0,1.2-0.2,2.3-0.8,3.2 c-0.6,0.9-1.5,1.5-2.8,1.5c-1.3,0-2.3-0.6-2.9-1.5c-0.6-0.9-0.8-2-0.8-3.2C219.1,14.8,219.3,13.7,219.9,12.8z M221.4,18.5 c0.3,0.4,0.7,0.7,1.4,0.7c0.6,0,1.1-0.3,1.4-0.7c0.4-0.6,0.6-1.4,0.6-2.5s-0.2-2-0.6-2.5c-0.3-0.4-0.7-0.7-1.4-0.7 c-0.6,0-1.1,0.3-1.4,0.7c-0.4,0.6-0.6,1.4-0.6,2.5S221,18,221.4,18.5z"></path> <path d="M228.4,12.8c0.6-0.9,1.5-1.5,2.9-1.5c1.3,0,2.3,0.6,2.8,1.5c0.6,0.9,0.8,2,0.8,3.2c0,1.2-0.2,2.3-0.8,3.2 c-0.6,0.9-1.5,1.5-2.8,1.5c-1.3,0-2.3-0.6-2.9-1.5c-0.6-0.9-0.8-2-0.8-3.2C227.6,14.8,227.8,13.7,228.4,12.8z M229.9,18.5 c0.3,0.4,0.7,0.7,1.4,0.7s1.1-0.3,1.4-0.7c0.4-0.6,0.6-1.4,0.6-2.5s-0.2-2-0.6-2.5c-0.3-0.4-0.7-0.7-1.4-0.7s-1.1,0.3-1.4,0.7 c-0.4,0.6-0.6,1.4-0.6,2.5S229.5,18,229.9,18.5z"></path> <path d="M238.9,15.8v-2.7h1.4v2.7h2.6v1.3h-2.6v2.7h-1.4v-2.7h-2.6v-1.3H238.9z"></path> <path d="M251.9,15.3c-0.2,0-0.4,0-0.5,0c-1.2,0-1.8,0.7-1.8,2v3.2H248v-6.7h1.6v1.1c0.3-0.7,1.1-1.2,1.9-1.2c0.2,0,0.4,0,0.4,0 V15.3z"></path> <path d="M259.1,18.5c-0.4,1.2-1.4,2.1-3,2.1c-1.8,0-3.4-1.3-3.4-3.6c0-2.1,1.6-3.5,3.3-3.5c2.1,0,3.3,1.4,3.3,3.5 c0,0.3,0,0.5,0,0.5h-4.9c0,1,0.8,1.7,1.8,1.7c1,0,1.5-0.5,1.7-1.2L259.1,18.5z M257.6,16.3c0-0.8-0.6-1.5-1.7-1.5 c-1,0-1.6,0.8-1.6,1.5H257.6z"></path> <path d="M264,20.4h-1.6l-2.7-6.7h1.8l1.8,4.8l1.7-4.8h1.7L264,20.4z"></path> <path d="M268.6,10.3c0.6,0,1,0.5,1,1c0,0.6-0.5,1-1,1c-0.6,0-1-0.5-1-1C267.6,10.8,268.1,10.3,268.6,10.3z M267.9,20.4v-6.7h1.6 v6.7H267.9z"></path> <path d="M277.4,18.5c-0.4,1.2-1.4,2.1-3,2.1c-1.8,0-3.4-1.3-3.4-3.6c0-2.1,1.6-3.5,3.3-3.5c2.1,0,3.3,1.4,3.3,3.5 c0,0.3,0,0.5,0,0.5h-4.9c0,1,0.8,1.7,1.8,1.7c1,0,1.5-0.5,1.7-1.2L277.4,18.5z M275.9,16.3c0-0.8-0.6-1.5-1.7-1.5 c-1,0-1.6,0.8-1.6,1.5H275.9z"></path> <path d="M284.4,13.7l1.6,4.6l1.3-4.6h1.6l-2.1,6.7h-1.6l-1.7-4.8l-1.6,4.8h-1.6l-2.2-6.7h1.7l1.4,4.6l1.6-4.6H284.4z"></path> <path d="M291,18.2c0.1,0.6,0.5,1.1,1.4,1.1c0.7,0,1-0.4,1-0.8c0-0.4-0.2-0.6-0.8-0.7l-1-0.2c-1.2-0.3-1.8-1-1.8-2 c0-1.2,1.1-2.2,2.5-2.2c1.9,0,2.5,1.2,2.6,1.9l-1.4,0.4c-0.1-0.4-0.3-1-1.2-1c-0.6,0-1,0.4-1,0.8c0,0.4,0.3,0.6,0.7,0.7l1,0.2 c1.3,0.3,1.9,1,1.9,2c0,1-0.8,2.1-2.5,2.1c-1.9,0-2.7-1.3-2.8-2L291,18.2z"></path> <path d="M306.3,17.1c0,2.1-1.5,3.6-3.5,3.6c-2,0-3.5-1.5-3.5-3.6c0-2.1,1.5-3.6,3.5-3.6C304.9,13.5,306.3,15,306.3,17.1z M304.7,17.1c0-1.4-0.9-2.1-1.9-2.1c-1,0-1.9,0.7-1.9,2.1s0.9,2.1,1.9,2.1C303.8,19.2,304.7,18.5,304.7,17.1z"></path> <path d="M309.5,20.4h-1.6v-6.7h1.6v0.9c0.4-0.8,1.2-1.1,2-1.1c1.6,0,2.4,1.2,2.4,2.7v4.2h-1.6v-4c0-0.8-0.4-1.5-1.4-1.5 c-0.9,0-1.4,0.7-1.4,1.6V20.4z"></path> </g> </svg> 